<?xml version="1.0" standalone="no"?>
<!DOCTYPE svg PUBLIC "-//W3C//DTD SVG 20010904//EN"
 "http://www.w3.org/TR/2001/REC-SVG-20010904/DTD/svg10.dtd">
<svg version="1.0" xmlns="http://www.w3.org/2000/svg"
 width="512.000000pt" height="512.000000pt" viewBox="0 0 512.000000 512.000000"
 preserveAspectRatio="xMidYMid meet">

<g transform="translate(0.000000,512.000000) scale(0.100000,-0.100000)"
fill="#000000" stroke="none">
<path d="M2398 4384 c-281 -51 -526 -231 -649 -479 -34 -68 -694 -2043 -686
-2051 1 -2 47 56 102 129 130 172 184 229 275 290 174 118 383 173 629 165
l114 -3 262 787 c145 432 275 809 290 836 63 115 146 173 247 170 l63 -1 -70
-6 c-83 -8 -117 -24 -172 -84 -58 -63 -77 -103 -158 -347 l-71 -215 263 -795
263 -795 502 -289 c276 -160 510 -290 521 -290 28 -1 39 44 32 123 -4 47 -113
390 -397 1250 -215 652 -404 1212 -420 1244 -33 67 -92 135 -128 149 -14 5
-56 18 -95 28 -38 11 -60 19 -48 19 11 1 50 -8 85 -18 l63 -20 -30 25 c-45 37
-178 100 -284 134 -181 59 -343 73 -503 44z"/>
<path d="M1239 1951 c-61 -19 -143 -71 -152 -96 -4 -8 -12 -15 -19 -15 -15 0
-202 -556 -212 -631 -17 -118 45 -282 137 -365 164 -148 388 -160 564 -30 100
73 118 110 257 521 113 333 124 371 109 382 -52 39 -397 224 -442 237 -71 21
-172 19 -242 -3z"/>
</g>
</svg>
